<svg id="Iconly_Bulk_Image" data-name="Iconly/Bulk/Image" xmlns="http://www.w3.org/2000/svg" width="20" height="20" viewBox="0 0 20 20">
  <g id="Image">
    <path id="Fill_1" data-name="Fill 1" d="M14.333,20H5.666C2.277,20,0,17.623,0,14.084V5.917C0,2.378,2.277,0,5.666,0h8.668C17.723,0,20,2.378,20,5.917v8.168C20,17.623,17.723,20,14.333,20" fill="#ccaad6"/>
    <path id="Combined_Shape" data-name="Combined Shape" d="M2.514,13.567a4.184,4.184,0,0,1-2.177-.558.736.736,0,0,1-.165-1.1c.47-.57.934-1.142,1.4-1.719.892-1.1,1.492-1.424,2.161-1.143a5.581,5.581,0,0,1,.823.475,2.807,2.807,0,0,0,3.149.436A5.617,5.617,0,0,0,9.664,7.8c.194-.311.378-.621.592-.9a1.585,1.585,0,0,1,2.111-.553A10.687,10.687,0,0,1,14.229,7.9a2.181,2.181,0,0,1,.509.76,3.564,3.564,0,0,1-.2,2.656,3.635,3.635,0,0,1-2.247,2.046,4.585,4.585,0,0,1-1.4.207ZM1.1,2.486A2.485,2.485,0,1,1,3.588,4.971,2.488,2.488,0,0,1,1.1,2.486Z" transform="translate(3.172 4.189)" fill="#200e32"/>
  </g>
</svg>
