<svg id="Iconly_Bulk_Video" data-name="Iconly/Bulk/Video" xmlns="http://www.w3.org/2000/svg" width="20" height="15" viewBox="0 0 20 15">
  <g id="Video">
    <path id="Fill_1" data-name="Fill 1" d="M3.743.216A1.383,1.383,0,0,0,2.37.152L.888.9A1.618,1.618,0,0,0,0,2.356V8.19A1.622,1.622,0,0,0,.888,9.647l1.481.747A1.372,1.372,0,0,0,3,10.547a1.4,1.4,0,0,0,.743-.216,1.429,1.429,0,0,0,.669-1.218V1.435A1.432,1.432,0,0,0,3.743.216" transform="translate(15.588 2.226)" fill="#ccaad6"/>
    <path id="Fill_3" data-name="Fill 3" d="M9.905,15H4.113A3.91,3.91,0,0,1,0,10.939V4.061A3.91,3.91,0,0,1,4.113,0H9.905a3.91,3.91,0,0,1,4.113,4.061v6.878A3.91,3.91,0,0,1,9.905,15" fill="#8e40a3"/>
  </g>
</svg>
